<svg xmlns="http://www.w3.org/2000/svg" width="1240" height="1240"><path d="M603 15.583c-10.175 7.94-20.525 16-23 17.91L562.5 47c-7.15 5.519-15.19 11.714-17.868 13.767A725.273 725.273 0 00536 67.5a725.273 725.273 0 01-8.632 6.733C524.69 76.286 516.65 82.481 509.5 88L492 101.506c-2.475 1.909-21.375 16.526-42 32.482a99625.011 99625.011 0 01-59.845 46.261c-12.29 9.488-24.215 18.711-26.5 20.495-4.959 3.872-25.89 20.066-85.655 66.271-24.475 18.921-56.2 43.452-70.5 54.513-14.3 11.061-40.175 31.069-57.5 44.463L93.5 409.67c-13.75 10.631-36.7 28.371-51 39.423a24807.778 24807.778 0 00-34.25 26.509L0 482.015V546.662l14.197 12.919c31.223 28.412 37.859 34.83 37.336 36.111-.293.719-.806 1.983-1.14 2.808-.334.825-.109 1.5.5 1.5.777 0 1.107 6.851 1.107 23v23h1143.087l-.136-26.489-.136-26.489 12.343-15.202c6.788-8.36 16.717-20.601 22.064-27.201l9.722-12 .278-30.06c.246-26.651.094-30.229-1.342-31.559-.89-.825-20.845-16.35-44.343-34.5A99172.155 99172.155 0 011103 372.493c-2.475-1.913-15.992-12.368-30.037-23.235a49303.422 49303.422 0 00-55.37-42.758c-16.408-12.65-31.526-24.35-33.595-26-2.07-1.65-5.953-4.68-8.63-6.733-2.678-2.053-10.718-8.248-17.868-13.767-7.15-5.519-15.19-11.714-17.868-13.767a725.916 725.916 0 01-8.633-6.733c-2.071-1.65-11.806-9.186-21.632-16.746-15.724-12.097-69.158-53.419-118.326-91.505a9267.78 9267.78 0 00-25.5-19.686c-4.973-3.815-32.891-25.397-62.041-47.958C630.388 7.017 622.572 1.021 622 1.088c-.275.032-8.825 6.555-19 14.495M110.685 519.084c-1.548 2.154-2.614 3.916-2.369 3.916.691 0 5.932-7.086 5.535-7.482-.193-.193-1.618 1.412-3.166 3.566m-5.362 7.166c-1.114 1.237-2.383 2.925-2.821 3.75-.844 1.591-.614 1.374 3.437-3.25 1.325-1.513 2.185-2.75 1.91-2.75-.275 0-1.412 1.013-2.526 2.25m9.655 373.5l-.023 251.75-16.644 21.5a71024.017 71024.017 0 01-33.572 43.322c-9.31 12.003-16.735 22.015-16.499 22.251.236.236 257.714.316 572.174.178l571.746-.251-19.684-25.5a342077.09 342077.09 0 01-34.08-44.158L1124 1150.184V648h-23v272H752.89l.305-4.75.305-4.75 145-.5 145-.5 4.613-2.712c8.939-5.255 15.498-15.732 18.388-29.376 2.279-10.758 2.198-178.109-.092-189.204-2.202-10.671-5.802-17.733-12.423-24.369-9.575-9.597 4.075-8.839-159.168-8.839H752v-7h-23v7H507v-7h-21.598l.407 3.487.407 3.486-144.358.264-144.358.263-4.698 2.762c-9.54 5.608-16.104 15.431-19.261 28.826-2.251 9.551-2.289 180.225-.042 190.906 2.085 9.911 6.001 17.634 11.94 23.542 9.37 9.322-6.443 8.464 155.962 8.464H485v10H137V648h-22l-.022 251.75m392.485 11.496c-.263.69-.362 54.804-.22 120.254l.257 119h221v-240l-110.28-.254c-87.696-.203-110.377.002-110.757 1" fill="undefined" fill-rule="evenodd"/></svg>